Coordinates
version=1
nRows=19
nColumns=30
inDegrees=yes

Units are S.I. units (second, meters, Newtons, ...)
Angles are in degrees.

endheader
time	floatyaw	floatroll	floatpitch	floatx	floaty	floatz	pro_sup_l	deviation_l	flexion_l	cmc_flexion_l	cmc_abduction_l	mp_flexion_l	ip_flexion_l	2mcp_flexion_l	2mcp_abduction_l	2pm_flexion_l	2md_flexion_l	3mcp_flexion_l	3mcp_abduction_l	3pm_flexion_l	3md_flexion_l	4mcp_flexion_l	4mcp_abduction_l	4pm_flexion_l	4md_flexion_l	5mcp_flexion_l	5mcp_abduction_l	5pm_flexion_l	5md_flexion_l
-0.995000	-160.147433	-5.066637	-73.570646	0.063411	-0.174707	-0.032486	104.409933	5.864718	-1.542231	15.354256	4.569771	-27.215147	-44.080478	32.719015	7.808481	47.237555	34.370059	27.020026	4.446976	49.126401	31.319816	18.112262	-4.795660	56.594333	41.105572	7.065390	-8.496479	66.626553	46.946633
-0.985000	-160.147433	-5.066637	-73.570646	0.063148	-0.174622	-0.032889	104.385553	5.918973	-1.562571	15.334178	4.493686	-27.236286	-44.106387	32.684921	7.820328	47.287728	34.634919	26.999686	4.450122	49.206931	31.476128	18.044836	-4.787322	56.787161	41.281717	7.155886	-8.482707	66.706528	47.069889
-0.975000	-160.147433	-5.066637	-73.570646	0.062854	-0.174484	-0.033316	104.336705	5.983267	-1.603782	15.331587	4.398957	-27.244004	-44.122174	32.654468	7.824281	47.323253	34.872440	26.969021	4.453818	49.278607	31.611559	18.013813	-4.777919	56.957022	41.417767	7.274115	-8.468813	66.766677	47.143007
-0.965000	-160.147433	-5.066637	-73.570646	0.062519	-0.174284	-0.033779	104.281775	6.067317	-1.666164	15.351275	4.304322	-27.238208	-44.129456	32.657085	7.820518	47.339800	35.046801	26.950429	4.458047	49.336581	31.712675	18.037883	-4.767952	57.075656	41.506741	7.417893	-8.465780	66.797839	47.171150
-0.955000	-160.147433	-5.066637	-73.570646	0.062127	-0.174016	-0.034291	104.231955	6.181464	-1.748033	15.391220	4.231893	-27.217211	-44.123462	32.706346	7.813546	47.335253	35.142259	26.963821	4.462481	49.379733	31.776586	18.121526	-4.757390	57.127650	41.551779	7.578216	-8.484930	66.800962	47.172097
-0.945000	-160.147433	-5.066637	-73.570646	0.061653	-0.173677	-0.034867	104.186684	6.332599	-1.843262	15.442137	4.199352	-27.180527	-44.096635	32.793831	7.812103	47.310771	35.167621	27.020201	4.466481	49.411251	31.808676	18.252293	-4.746328	57.118259	41.565307	7.736498	-8.532531	66.792527	47.170664
-0.935000	-160.147433	-5.066637	-73.570646	0.061073	-0.173271	-0.035515	104.134427	6.521531	-1.941132	15.489345	4.213872	-27.132385	-44.045263	32.894665	7.825508	47.270833	35.151311	27.118219	4.468877	49.438466	31.818637	18.404839	-4.735434	57.072334	41.565860	7.866475	-8.604650	66.799900	47.189943
-0.925000	-160.147433	-5.066637	-73.570646	0.060370	-0.172800	-0.036241	104.059106	6.743866	-2.029174	15.516772	4.270339	-27.082499	-43.974093	32.981084	7.858146	47.223046	35.130582	27.244761	4.468057	49.471471	31.817592	18.551496	-4.725674	57.023456	41.572390	7.943186	-8.686012	66.847814	47.242272
-0.915000	-160.147433	-5.066637	-73.570646	0.059535	-0.172270	-0.037045	103.950126	6.993826	-2.097855	15.512512	4.353459	-27.042559	-43.895719	33.034749	7.905911	47.178769	35.139847	27.378894	4.462853	49.519919	31.816928	18.674466	-4.717499	56.998493	41.597379	7.955283	-8.755475	66.944900	47.324428
-0.905000	-160.147433	-5.066637	-73.570646	0.058575	-0.171682	-0.037921	103.811332	7.268009	-2.144799	15.474607	4.441641	-27.020424	-43.825641	33.050027	7.957605	47.153796	35.201759	27.497605	4.453827	49.588811	31.827402	18.772726	-4.710393	57.006059	41.642417	7.912663	-8.796310	67.079438	47.420457
-0.895000	-160.147433	-5.066637	-73.570646	0.057507	-0.171040	-0.038862	103.663277	7.566313	-2.176300	15.414418	4.511265	-27.015994	-43.776604	33.028448	8.000720	47.166507	35.322413	27.582030	4.443750	49.675561	31.857016	18.859838	-4.703350	57.035391	41.699560	7.843947	-8.805078	67.226396	47.511045
-0.885000	-160.147433	-5.066637	-73.570646	0.056351	-0.170345	-0.039860	103.535890	7.889850	-2.204918	15.354384	4.541534	-27.021712	-43.755176	32.971680	8.027954	47.231911	35.490836	27.623216	4.436468	49.770497	31.908053	18.954872	-4.695967	57.065815	41.757972	7.785517	-8.793345	67.360083	47.583643
-0.875000	-160.147433	-5.066637	-73.570646	0.055116	-0.169598	-0.040914	103.454414	8.237880	-2.243725	15.318975	4.520337	-27.027287	-43.761030	32.880267	8.040535	47.353889	35.682943	27.626007	4.434712	49.861122	31.975451	19.072975	-4.689129	57.080245	41.811260	7.769276	-8.781564	67.464281	47.637040
-0.865000	-160.147433	-5.066637	-73.570646	0.053787	-0.168794	-0.042030	103.426181	8.606025	-2.299924	15.322194	4.449980	-27.025339	-43.787603	32.759310	8.046676	47.520993	35.869645	27.609392	4.438507	49.938231	32.048656	19.221515	-4.684645	57.074057	41.860696	7.815897	-8.789501	67.535127	47.678480
-0.855000	-160.147433	-5.066637	-73.570646	0.052332	-0.167923	-0.043223	103.435716	8.986506	-2.371793	15.359008	4.349968	-27.013950	-43.822834	32.626349	8.056335	47.709821	36.026631	27.602317	4.445575	50.001069	32.117201	19.402842	-4.684034	57.055036	41.913205	7.935186	-8.828695	67.578035	47.717053
-0.845000	-160.147433	-5.066637	-73.570646	0.050716	-0.166976	-0.044504	103.451075	9.369691	-2.451209	15.407157	4.253899	-26.994138	-43.849569	32.514496	8.075377	47.894587	36.141770	27.635098	4.453605	50.059888	32.178118	19.619485	-4.687254	57.037127	41.976860	8.129716	-8.899970	67.603697	47.759113
-0.835000	-160.147433	-5.066637	-73.570646	0.048923	-0.165954	-0.045874	103.438515	9.745819	-2.530058	15.438736	4.199835	-26.964248	-43.846677	32.465539	8.102621	48.056857	36.217365	27.727936	4.462654	50.135891	32.241729	19.875868	-4.692151	57.034204	42.057488	8.396190	-8.995639	67.626647	47.808582
-0.825000	-160.147433	-5.066637	-73.570646	0.046967	-0.164872	-0.047315	103.378319	10.106599	-2.605886	15.433431	4.216699	-26.916825	-43.793233	32.512983	8.131889	48.189750	36.267597	27.880425	4.475645	50.258152	32.331864	20.173801	-4.695051	57.058081	42.158115	8.722434	-9.103957	67.665107	47.870141
-0.815000	-160.147433	-5.066637	-73.570646	0.044892	-0.163754	-0.048797	103.273787	10.447209	-2.683468	15.384420	4.311923	-26.842724	-43.677225	32.662657	8.158138	48.295391	36.313170	28.068411	4.496362	50.455778	32.477908	20.505195	-4.692420	57.120199	42.280793	9.083990	-9.213301	67.738384	47.951276
